<svg xmlns="http://www.w3.org/2000/svg" xmlns:xlink="http://www.w3.org/1999/xlink" xmlns:lucid="lucid" width="682" height="602"><g transform="translate(-278.99999996362004 -78.9993176667146)" lucid:page-tab-id="0_0"><path d="M660 188c0 6.63-26.86 12-60 12s-60-5.37-60-12V92c0-6.63 26.86-12 60-12s60 5.37 60 12z" stroke="#3a414a" stroke-width="2" fill="#fff"/><path d="M660 92c0 6.63-26.86 12-60 12s-60-5.37-60-12" stroke="#3a414a" stroke-width="2" fill="none"/><use xlink:href="#a" transform="matrix(1,0,0,1,545,109) translate(5.320095486111114 51.09027777777778)"/><path d="M632.24 260.26A8.12 8.12 0 0 0 640 266h84a6 6 0 0 1 6 6v82a6 6 0 0 1-6 6H476a6 6 0 0 1-6-6V246a6 6 0 0 1 6-6h144a8.12 8.12 0 0 1 7.76 5.74zM470 266h164" stroke="#3a414a" stroke-width="2" fill="#fff"/><use xlink:href="#b" transform="matrix(1,0,0,1,478,240) translate(0 21.52777777777778)"/><use xlink:href="#c" transform="matrix(1,0,0,1,478,240) translate(86.57769097222221 21.52777777777778)"/><path d="M442.24 420.26A8.12 8.12 0 0 0 450 426h84a6 6 0 0 1 6 6v82a6 6 0 0 1-6 6H286a6 6 0 0 1-6-6V406a6 6 0 0 1 6-6h144a8.12 8.12 0 0 1 7.76 5.74zM280 426h164" stroke="#3a414a" stroke-width="2" fill="#fff"/><use xlink:href="#b" transform="matrix(1,0,0,1,288,400) translate(0 21.52777777777778)"/><use xlink:href="#d" transform="matrix(1,0,0,1,288,400) translate(86.57769097222221 21.52777777777778)"/><path d="M442.24 580.26A8.12 8.12 0 0 0 450 586h84a6 6 0 0 1 6 6v82a6 6 0 0 1-6 6H286a6 6 0 0 1-6-6V566a6 6 0 0 1 6-6h144a8.12 8.12 0 0 1 7.76 5.74zM280 586h164" stroke="#3a414a" stroke-width="2" fill="#fff"/><use xlink:href="#b" transform="matrix(1,0,0,1,288,560) translate(0 21.52777777777778)"/><use xlink:href="#e" transform="matrix(1,0,0,1,288,560) translate(86.57769097222221 21.52777777777778)"/><path d="M822.24 420.26A8.12 8.12 0 0 0 830 426h84a6 6 0 0 1 6 6v82a6 6 0 0 1-6 6H666a6 6 0 0 1-6-6V406a6 6 0 0 1 6-6h144a8.12 8.12 0 0 1 7.76 5.74zM660 426h164" stroke="#3a414a" stroke-width="2" fill="#fff"/><use xlink:href="#b" transform="matrix(1,0,0,1,668,400) translate(0 21.52777777777778)"/><use xlink:href="#f" transform="matrix(1,0,0,1,668,400) translate(86.57769097222221 21.52777777777778)"/><path d="M480 286a6 6 0 0 1 6-6h28a6 6 0 0 1 6 6v28a6 6 0 0 1-6 6h-28a6 6 0 0 1-6-6z" stroke="#3a414a" stroke-width="2" fill="#fff"/><use xlink:href="#g" transform="matrix(1,0,0,1,480,280) translate(15.48568576388889 29.02777777777778)"/><path d="M540 286a6 6 0 0 1 6-6h28a6 6 0 0 1 6 6v28a6 6 0 0 1-6 6h-28a6 6 0 0 1-6-6z" stroke="#3a414a" stroke-width="2" fill="#fff"/><use xlink:href="#h" transform="matrix(1,0,0,1,540,280) translate(13.228741319444444 29.02777777777778)"/><path d="M290 446a6 6 0 0 1 6-6h28a6 6 0 0 1 6 6v28a6 6 0 0 1-6 6h-28a6 6 0 0 1-6-6z" stroke="#3a414a" stroke-width="2" fill="#fff"/><use xlink:href="#i" transform="matrix(1,0,0,1,290,440) translate(13.14193576388889 29.02777777777778)"/><path d="M350 446a6 6 0 0 1 6-6h28a6 6 0 0 1 6 6v28a6 6 0 0 1-6 6h-28a6 6 0 0 1-6-6z" stroke="#3a414a" stroke-width="2" fill="#fff"/><use xlink:href="#j" transform="matrix(1,0,0,1,350,440) translate(12.827265625 29.02777777777778)"/><path d="M670 446a6 6 0 0 1 6-6h28a6 6 0 0 1 6 6v28a6 6 0 0 1-6 6h-28a6 6 0 0 1-6-6z" stroke="#3a414a" stroke-width="2" fill="#fff"/><use xlink:href="#k" transform="matrix(1,0,0,1,670,440) translate(13.250442708333333 29.02777777777778)"/><path d="M290 606a6 6 0 0 1 6-6h28a6 6 0 0 1 6 6v28a6 6 0 0 1-6 6h-28a6 6 0 0 1-6-6z" stroke="#3a414a" stroke-width="2" fill="#fff"/><use xlink:href="#l" transform="matrix(1,0,0,1,290,600) translate(13.114809027777778 29.02777777777778)"/><path d="M350 606a6 6 0 0 1 6-6h28a6 6 0 0 1 6 6v28a6 6 0 0 1-6 6h-28a6 6 0 0 1-6-6z" stroke="#3a414a" stroke-width="2" fill="#fff"/><use xlink:href="#m" transform="matrix(1,0,0,1,350,600) translate(13.717022569444444 29.02777777777778)"/><path d="M796.3 92a12 12 0 0 1 12-12H948a12 12 0 0 1 12 12v165.74a12 12 0 0 1-12 12H808.3a12 12 0 0 1-12-12z" stroke="#dfe3e8" stroke-width="2" fill="#dfe3e8"/><path d="M850.3 177.74c0 1.1-4.47 2-10 2-5.52 0-10-.9-10-2v-16c0-1.1 4.48-2 10-2 5.53 0 10 .9 10 2z" stroke="#3a414a" stroke-width="1.05" fill="#fff"/><path d="M850.3 161.74c0 1.1-4.47 2-10 2-5.52 0-10-.9-10-2" stroke="#3a414a" stroke-width="1.05" fill="none"/><path d="M843.2 197.75c.06.2.24.32.44.32h6.33c.2 0 .34.15.34.33v9.67c0 .18-.14.33-.33.33h-19.33c-.18 0-.33-.15-.33-.33V195.4c0-.18.16-.33.34-.33h11.33c.2 0 .38.12.44.32zm-12.9.32h13M830.3 229.5c0-.43.34-.76.76-.76h18.5c.4 0 .75.33.75.75v8.5c0 .4-.33.74-.74.74h-18.5c-.42 0-.75-.34-.75-.75z" stroke="#3a414a" stroke-width="1.05" fill="#fff"/><use xlink:href="#n" transform="matrix(1,0,0,1,828.30640625,104) translate(0 18.384241164487406)"/><use xlink:href="#o" transform="matrix(1,0,0,1,828.30640625,104) translate(0 38.80385102804625)"/><use xlink:href="#p" transform="matrix(1,0,0,1,864.30640625,157.7365234375) translate(0 15.916201903397464)"/><use xlink:href="#q" transform="matrix(1,0,0,1,864.30640625,189.7365234375) translate(0 15.916201903397464)"/><use xlink:href="#r" transform="matrix(1,0,0,1,864.30640625,221.7365234375) translate(0 15.916201903397464)"/><path d="M600 201.5v21.12" stroke="#3a414a" fill="none"/><path d="M600 201l.48-.02v.53h-.96V201z" stroke="#3a414a" stroke-width=".05" fill="#3a414a"/><path d="M600 237.38l-4.63-14.26h9.26z" stroke="#3a414a" fill="#3a414a"/><path d="M410 521.5v21.12" stroke="#3a414a" fill="none"/><path d="M410.48 521.5h-.96v-.5h.96z" stroke="#3a414a" stroke-width=".05" fill="#3a414a"/><path d="M410 557.38l-4.63-14.26h9.26z" stroke="#3a414a" fill="#3a414a"/><path d="M600 361.5V454a6 6 0 0 1-6 6h-36.62" stroke="#3a414a" fill="none"/><path d="M600.48 361.5h-.96v-.5h.96z" stroke="#3a414a" stroke-width=".05" fill="#3a414a"/><path d="M542.62 460l14.26-4.63v9.26z" stroke="#3a414a" fill="#3a414a"/><path d="M600 361.5V454a6 6 0 0 0 6 6h36.62" stroke="#3a414a" fill="none"/><path d="M600.48 361.5h-.96v-.5h.96z" stroke="#3a414a" stroke-width=".05" fill="#3a414a"/><path d="M657.38 460l-14.26 4.63v-9.26z" stroke="#3a414a" fill="#3a414a"/><defs><path d="M645 0H180v-1490h484c435 0 692 280 692 742 0 466-257 748-711 748zM370-168h263c363 0 539-218 539-580 0-358-176-574-521-574H370v1154" id="s"/><path d="M471 26C259 26 90-98 90-318c0-256 228-303 435-329 202-27 287-16 287-108 0-139-79-219-234-219-161 0-248 86-283 164l-173-57c86-203 278-265 451-265 150 0 419 46 419 395V0H815v-152h-12C765-73 660 26 471 26zm31-159c199 0 310-134 310-271v-155c-30 35-226 55-295 64-131 17-246 59-246 186 0 116 97 176 231 176" id="t"/><path d="M598-1118v154H368v674c0 100 37 144 132 144 23 0 62-6 92-12L629-6c-37 13-88 20-134 20-193 0-307-107-307-290v-688H20v-154h168v-266h180v266h230" id="u"/><path d="M677 24c-213 0-288-135-325-197h-20V0H158v-1490h180v551h14c37-59 106-193 324-193 279 0 474 222 474 576 0 356-194 580-473 580zm-27-161c209 0 317-186 317-421 0-232-105-413-317-413-206 0-314 166-314 413 0 249 111 421 314 421" id="v"/><path d="M538 24C308 24 148-78 108-271l171-41c32 123 123 178 257 178 156 0 256-77 256-169 0-77-54-128-164-154l-186-44c-203-48-300-148-300-305 0-192 176-326 414-326 230 0 351 112 402 269l-163 42c-31-80-94-158-238-158-133 0-233 69-233 162 0 83 57 129 188 160l169 40c203 48 298 149 298 302 0 196-179 339-441 339" id="w"/><path d="M628 24c-324 0-524-230-524-574 0-343 198-582 503-582 237 0 487 146 487 559v75H286c9 234 145 362 343 362 132 0 231-58 273-172l174 48C1024-91 857 24 628 24zM287-650h624c-17-190-120-322-304-322-192 0-309 151-320 322" id="x"/><g id="a"><use transform="matrix(0.010850694444444444,0,0,0.010850694444444444,0,0)" xlink:href="#s"/><use transform="matrix(0.010850694444444444,0,0,0.010850694444444444,16.03732638888889,0)" xlink:href="#t"/><use transform="matrix(0.010850694444444444,0,0,0.010850694444444444,28.515625,0)" xlink:href="#u"/><use transform="matrix(0.010850694444444444,0,0,0.010850694444444444,35.89409722222222,0)" xlink:href="#t"/><use transform="matrix(0.010850694444444444,0,0,0.010850694444444444,48.37239583333333,0)" xlink:href="#v"/><use transform="matrix(0.010850694444444444,0,0,0.010850694444444444,62.19618055555554,0)" xlink:href="#t"/><use transform="matrix(0.010850694444444444,0,0,0.010850694444444444,74.67447916666666,0)" xlink:href="#w"/><use transform="matrix(0.010850694444444444,0,0,0.010850694444444444,86.4040798611111,0)" xlink:href="#x"/></g><g id="b"><use transform="matrix(0.010850694444444444,0,0,0.010850694444444444,0,0)" xlink:href="#s"/><use transform="matrix(0.010850694444444444,0,0,0.010850694444444444,16.03732638888889,0)" xlink:href="#t"/><use transform="matrix(0.010850694444444444,0,0,0.010850694444444444,28.515625,0)" xlink:href="#u"/><use transform="matrix(0.010850694444444444,0,0,0.010850694444444444,35.89409722222222,0)" xlink:href="#t"/><use transform="matrix(0.010850694444444444,0,0,0.010850694444444444,48.37239583333333,0)" xlink:href="#w"/><use transform="matrix(0.010850694444444444,0,0,0.010850694444444444,60.10199652777778,0)" xlink:href="#x"/><use transform="matrix(0.010850694444444444,0,0,0.010850694444444444,73.05772569444444,0)" xlink:href="#u"/></g><path d="M653-1490V0H466v-1314h-10L96-1047v-204l324-239h233" id="y"/><use transform="matrix(0.010850694444444444,0,0,0.010850694444444444,0,0)" xlink:href="#y" id="c"/><path d="M295 13c-75 0-135-60-135-135s60-135 135-135 135 60 135 135S370 13 295 13" id="z"/><g id="d"><use transform="matrix(0.010850694444444444,0,0,0.010850694444444444,0,0)" xlink:href="#y"/><use transform="matrix(0.010850694444444444,0,0,0.010850694444444444,9.038628472222221,0)" xlink:href="#z"/><use transform="matrix(0.010850694444444444,0,0,0.010850694444444444,13.51996527777778,0)" xlink:href="#y"/></g><g id="e"><use transform="matrix(0.010850694444444444,0,0,0.010850694444444444,0,0)" xlink:href="#y"/><use transform="matrix(0.010850694444444444,0,0,0.010850694444444444,9.038628472222221,0)" xlink:href="#z"/><use transform="matrix(0.010850694444444444,0,0,0.010850694444444444,13.51996527777778,0)" xlink:href="#y"/><use transform="matrix(0.010850694444444444,0,0,0.010850694444444444,22.55859375,0)" xlink:href="#z"/><use transform="matrix(0.010850694444444444,0,0,0.010850694444444444,27.039930555555554,0)" xlink:href="#y"/></g><path d="M154 0v-137l495-537c165-179 249-281 249-418 0-156-121-253-280-253-170 0-278 110-278 278H158c0-264 200-443 465-443 266 0 455 183 455 416 0 161-73 288-336 568L416-179v12h687V0H154" id="A"/><g id="f"><use transform="matrix(0.010850694444444444,0,0,0.010850694444444444,0,0)" xlink:href="#y"/><use transform="matrix(0.010850694444444444,0,0,0.010850694444444444,9.038628472222221,0)" xlink:href="#z"/><use transform="matrix(0.010850694444444444,0,0,0.010850694444444444,15.440538194444445,0)" xlink:href="#A"/></g><use transform="matrix(0.010850694444444444,0,0,0.010850694444444444,0,0)" xlink:href="#y" id="g"/><use transform="matrix(0.010850694444444444,0,0,0.010850694444444444,0,0)" xlink:href="#A" id="h"/><path d="M635 20c-292 0-500-160-510-396h192c11 142 145 229 315 229 187 0 323-105 323-260 0-161-125-274-346-274H488v-165h121c174 0 294-100 294-254 0-148-104-245-266-245-152 0-291 85-297 230H157c8-234 222-395 484-395 278 0 448 188 448 400 0 168-95 291-247 336v12c190 31 301 169 301 357 0 244-216 425-508 425" id="B"/><use transform="matrix(0.010850694444444444,0,0,0.010850694444444444,0,0)" xlink:href="#B" id="i"/><path d="M120-303v-155l652-1032h231v1020h202v167h-202V0H821v-303H120zm702-167v-782h-12L323-482v12h499" id="C"/><use transform="matrix(0.010850694444444444,0,0,0.010850694444444444,0,0)" xlink:href="#C" id="j"/><path d="M626 20c-262 0-458-168-468-396h184c12 133 134 229 284 229 180 0 311-137 311-326 0-192-136-335-323-335-92 0-196 33-255 78l-178-22 88-738h784v167H429l-51 435h8c61-51 160-87 263-87 273 0 474 211 474 499 0 286-210 496-497 496" id="D"/><use transform="matrix(0.010850694444444444,0,0,0.010850694444444444,0,0)" xlink:href="#D" id="k"/><path d="M646 20c-249 0-524-159-524-708 0-524 209-822 547-822 250 0 431 161 467 395H950c-33-129-126-227-281-227-229 0-367 208-367 566h12c80-124 212-198 367-198 255 0 467 205 467 493 0 278-198 501-502 501zm0-167c179 0 318-148 318-334 0-182-133-328-313-328-181 0-322 156-322 330 0 176 134 332 317 332" id="E"/><use transform="matrix(0.010850694444444444,0,0,0.010850694444444444,0,0)" xlink:href="#E" id="l"/><path d="M200 0l662-1311v-12H98v-167h963v177L400 0H200" id="F"/><use transform="matrix(0.010850694444444444,0,0,0.010850694444444444,0,0)" xlink:href="#F" id="m"/><path d="M659 0H135v-1490h529c448 0 721 280 721 744 0 466-273 746-726 746zM440-263h204c287 0 437-148 437-483 0-333-150-481-435-481H440v964" id="G"/><path d="M128 0v-1118h300V0H128zm150-1264c-91 0-165-68-165-154 0-85 74-154 165-154 90 0 165 69 165 154 0 86-75 154-165 154" id="H"/><path d="M440 22C227 22 68-92 68-313c0-250 202-322 422-343 195-21 271-24 271-105 0-95-63-149-175-149-116 0-187 57-211 129l-275-46c57-194 237-305 487-305 240 0 474 108 474 379V0H777v-155h-10C713-51 605 22 440 22zm85-211c140 0 238-93 238-211v-121c-37 26-156 42-222 51-111 16-185 59-185 149 0 87 70 132 169 132" id="I"/><path d="M625 442c-280 0-454-114-503-274l258-72c28 63 97 128 243 128 153 0 246-69 246-216v-206h-23C805-108 717-16 536-16 284-16 81-191 81-561c0-378 208-571 456-571 188 0 280 113 321 202h13v-188h295V-9c0 303-226 451-541 451zm5-686c153 0 240-119 240-319 0-198-86-329-240-329-158 0-241 137-241 329 0 195 85 319 241 319" id="J"/><path d="M128 0v-1118h290v195h12c54-169 184-238 367-200v268c-27-8-86-15-130-15-138 0-239 95-239 234V0H128" id="K"/><path d="M128 0v-1118h278l12 217c60-163 185-234 319-234 143 0 236 81 288 251 63-172 205-251 359-251 205 0 357 138 357 381V0h-301v-697c0-126-76-187-177-187-114 0-184 79-184 196V0H789v-705c0-109-72-179-174-179-106 0-187 74-187 208V0H128" id="L"/><g id="n"><use transform="matrix(0.007491235550502182,0,0,0.007491235550502182,0,0)" xlink:href="#G"/><use transform="matrix(0.007491235550502182,0,0,0.007491235550502182,11.079537379192727,0)" xlink:href="#H"/><use transform="matrix(0.007491235550502182,0,0,0.007491235550502182,15.237173109721438,0)" xlink:href="#I"/><use transform="matrix(0.007491235550502182,0,0,0.007491235550502182,24.14425217926853,0)" xlink:href="#J"/><use transform="matrix(0.007491235550502182,0,0,0.007491235550502182,33.83791098161836,0)" xlink:href="#K"/><use transform="matrix(0.007491235550502182,0,0,0.007491235550502182,39.87584683532312,0)" xlink:href="#I"/><use transform="matrix(0.007491235550502182,0,0,0.007491235550502182,48.782925904870204,0)" xlink:href="#L"/></g><path d="M128 0v-1490h300v802h17l366-430h347L740-633 1179 0H826L514-456l-86 97V0H128" id="M"/><path d="M633 22C291 22 81-200 81-553c0-345 210-579 537-579 292 0 525 185 525 567v84H378c7 183 109 277 260 277 105 0 184-46 216-132l272 51C1071-99 893 22 633 22zM380-669h474c-15-146-94-237-233-237-143 0-229 99-241 237" id="N"/><path d="M120 396l69-226c123 42 245 23 254-107l8-60L31-1118h319c87 288 199 559 259 872 72-308 185-583 277-872h315L726 132c-68 181-186 294-410 294-79 0-153-13-196-30" id="O"/><g id="o"><use transform="matrix(0.007491235550502182,0,0,0.007491235550502182,0,0)" xlink:href="#M"/><use transform="matrix(0.007491235550502182,0,0,0.007491235550502182,8.554990998673492,0)" xlink:href="#N"/><use transform="matrix(0.007491235550502182,0,0,0.007491235550502182,17.417122654917573,0)" xlink:href="#O"/></g><g id="p"><use transform="matrix(0.0049247851002865335,0,0,0.0049247851002865335,0,0)" xlink:href="#s"/><use transform="matrix(0.0049247851002865335,0,0,0.0049247851002865335,7.2788323782234965,0)" xlink:href="#t"/><use transform="matrix(0.0049247851002865335,0,0,0.0049247851002865335,12.94233524355301,0)" xlink:href="#u"/><use transform="matrix(0.0049247851002865335,0,0,0.0049247851002865335,16.291189111747855,0)" xlink:href="#t"/><use transform="matrix(0.0049247851002865335,0,0,0.0049247851002865335,21.954691977077367,0)" xlink:href="#v"/><use transform="matrix(0.0049247851002865335,0,0,0.0049247851002865335,28.228868194842416,0)" xlink:href="#t"/><use transform="matrix(0.0049247851002865335,0,0,0.0049247851002865335,33.892371060171925,0)" xlink:href="#w"/><use transform="matrix(0.0049247851002865335,0,0,0.0049247851002865335,39.216063753581665,0)" xlink:href="#x"/></g><g id="q"><use transform="matrix(0.0049247851002865335,0,0,0.0049247851002865335,0,0)" xlink:href="#s"/><use transform="matrix(0.0049247851002865335,0,0,0.0049247851002865335,7.2788323782234965,0)" xlink:href="#t"/><use transform="matrix(0.0049247851002865335,0,0,0.0049247851002865335,12.94233524355301,0)" xlink:href="#u"/><use transform="matrix(0.0049247851002865335,0,0,0.0049247851002865335,16.291189111747855,0)" xlink:href="#t"/><use transform="matrix(0.0049247851002865335,0,0,0.0049247851002865335,21.954691977077367,0)" xlink:href="#w"/><use transform="matrix(0.0049247851002865335,0,0,0.0049247851002865335,27.27838467048711,0)" xlink:href="#x"/><use transform="matrix(0.0049247851002865335,0,0,0.0049247851002865335,33.15857808022923,0)" xlink:href="#u"/></g><path d="M158 418v-1536h174v179h20c37-59 106-193 324-193 279 0 474 222 474 576 0 356-194 580-473 580-213 0-288-135-325-197h-14v591H158zm492-555c209 0 317-186 317-421 0-232-105-413-317-413-206 0-314 166-314 413 0 249 111 421 314 421" id="P"/><path d="M613 24c-304 0-509-231-509-576 0-350 205-580 509-580 305 0 511 230 511 580 0 345-206 576-511 576zm0-161c226 0 329-195 329-415 0-222-103-419-329-419-223 0-326 196-326 419 0 220 103 415 326 415" id="Q"/><path d="M158 0v-1118h180V0H158zm91-1301c-68 0-125-53-125-119s57-119 125-119c69 0 126 53 126 119s-57 119-126 119" id="R"/><path d="M338-670V0H158v-1118h173l1 207c72-158 192-221 342-221 226 0 378 139 378 422V0H872v-695c0-172-96-275-252-275-161 0-282 109-282 300" id="S"/><g id="r"><use transform="matrix(0.0049247851002865335,0,0,0.0049247851002865335,0,0)" xlink:href="#s"/><use transform="matrix(0.0049247851002865335,0,0,0.0049247851002865335,7.2788323782234965,0)" xlink:href="#t"/><use transform="matrix(0.0049247851002865335,0,0,0.0049247851002865335,12.94233524355301,0)" xlink:href="#u"/><use transform="matrix(0.0049247851002865335,0,0,0.0049247851002865335,16.291189111747855,0)" xlink:href="#t"/><use transform="matrix(0.0049247851002865335,0,0,0.0049247851002865335,21.954691977077367,0)" xlink:href="#P"/><use transform="matrix(0.0049247851002865335,0,0,0.0049247851002865335,28.13037249283668,0)" xlink:href="#Q"/><use transform="matrix(0.0049247851002865335,0,0,0.0049247851002865335,34.178008595988544,0)" xlink:href="#R"/><use transform="matrix(0.0049247851002865335,0,0,0.0049247851002865335,36.620702005730664,0)" xlink:href="#S"/><use transform="matrix(0.0049247851002865335,0,0,0.0049247851002865335,42.57969197707738,0)" xlink:href="#u"/></g></defs></g></svg>
